<svg xmlns="http://www.w3.org/2000/svg" width="19.392" height="19.403" viewBox="0 0 19.392 19.403"><defs><style>.a{fill:#707070;}</style></defs><g transform="translate(0 1.14)"><path class="a" d="M17.544,33.9H.719A.706.706,0,0,1,0,33.178V16.353a.706.706,0,0,1,.719-.719H7a.719.719,0,0,1,0,1.438H1.438V32.459H16.825V26.9a.719.719,0,1,1,1.438,0v6.279A.706.706,0,0,1,17.544,33.9Z" transform="translate(0 -15.634)"/></g><g transform="translate(6.218 0)"><g transform="translate(9.125)"><path class="a" d="M358.258,1.6,357.065.409a1.4,1.4,0,0,0-1.978,0l-.467.467,3.172,3.172.467-.467A1.4,1.4,0,0,0,358.258,1.6Z" transform="translate(-354.619 0)"/></g><g transform="translate(0 9.694)"><path class="a" d="M.566,376.747l-.56,3.024a.386.386,0,0,0,.45.45l3.024-.56Z" transform="translate(0 -376.747)"/></g><g transform="translate(0.983 1.422)"><path class="a" d="M45.794,55.274l-7.6,7.6,3.172,3.172,7.6-7.6Z" transform="translate(-38.198 -55.274)"/></g></g></svg>